<svg width="16" height="40" viewBox="0 0 16 40" fill="none" xmlns="http://www.w3.org/2000/svg">
<path d="M4.97852 8.00557C4.4656 7.87726 3.12531 7.22637 3.09985 7.02456C2.82166 5.09993 4.40536 1.64058 5.33122 0.863251C6.7464 -0.317065 9.40785 -0.299625 10.9155 0.993429C11.449 1.445 11.7737 2.50199 11.9178 3.72653C12.0004 4.38925 13.1649 7.52597 12.503 7.88473C11.7845 8.27962 9.70405 8.10896 9.08309 7.91401C9.49354 7.5814 9.92884 7.1074 10.2014 6.45714C10.5777 5.5378 10.6225 4.37991 10.5995 3.61691C8.75708 3.35531 6.74702 5.45496 5.53552 3.31856C5.49453 4.04357 5.48895 5.40887 5.92424 6.45652C6.17697 7.06567 6.57129 7.51724 6.95504 7.84487C6.95504 7.84487 5.80564 8.21858 4.97852 8.00557Z" fill="#F434A4"/>
<path d="M4.22342 31.8474L2.74926 24.8664L4.5 18.5L4.22342 16L1.51702 22.0533L0 21.4728L3.4497 10H3.81545H5.33122H5.56533C6.02173 11.1043 6.54303 11.875 7.875 11.875C9.20883 11.875 9.442 11.1043 9.8953 10H10.4001H11.503H12.0364L16 21.2526L14.2476 22.01L12.5568 19.1822L14.0769 24.7101L13.0926 31.8474H11.8607L10.8895 40H9.06011L9.0005 31.8474H8.17586L8.41555 40H6.28999L5.14245 31.8474H4.22342Z" fill="#F434A4"/>
</svg>
