<svg width="18" height="44" viewBox="0 0 18 44" fill="none" xmlns="http://www.w3.org/2000/svg">
<path fill-rule="evenodd" clip-rule="evenodd" d="M18 22.1936C16.949 23.3891 15.8947 24.5905 14.8437 25.7925C15.074 31.8584 14.4951 37.9295 14.7343 44C13.2157 44 12.5177 44 11.0048 44C10.6722 38.8635 10.0248 33.7295 9.6896 28.5943C9.00512 28.5943 9.37679 28.5943 8.68974 28.5943C8.42107 33.7295 7.40714 38.8635 7.13654 44C5.52001 44 4.86879 44 3.25226 44C3.61113 37.9295 2.99829 31.8591 3.35589 25.7925C2.23833 24.9312 1.11756 24.0679 0 23.2066C0.489374 18.8928 1.1144 14.0077 2.5 10C3.4135 10 4.32636 10 5.23985 10L7.5 16L8.4695 10.8628L8 10.5V9H10V10.5L9.52949 10.8628L10.5 16L12.6932 10C13.4609 10 14.2304 10 15 10C16.6293 13.7409 17.5567 18.2447 18 22.1936ZM6 4.5C5.88229 3.25543 6.12513 4.23934 6.5 3C9 4 12.1122 2.30979 12 5C13.5 4 12.9444 2.38835 12.2676 1.35503C11.1289 -0.36958 6.93375 -0.427786 5.68633 1.0653C5.20911 1.63102 4.50245 3.70604 6 4.5Z" fill="#2A6DC8"/>
</svg>
